HIERARCHY
ROOT Hips
{
	OFFSET 0.000000 83.214638 0.000000
	CHANNELS 6 Xposition Yposition Zposition Xrotation Yrotation Zrotation
	JOINT Pelvis
	{
		OFFSET 0.000000 0.000000 0.000000
		CHANNELS 3 Xrotation Yrotation Zrotation
		JOINT LeftUpLeg
		{
			OFFSET 8.479700 -4.795502 -0.379100
			CHANNELS 3 Xrotation Yrotation Zrotation
			JOINT LeftLeg
			{
				OFFSET 0.024144 -32.555107 0.112900
				CHANNELS 3 Xrotation Yrotation Zrotation
				JOINT LeftFoot
				{
					OFFSET -0.024144 -32.638630 -3.012600
					CHANNELS 3 Xrotation Yrotation Zrotation
					JOINT LeftToeBase
					{
						OFFSET 0.970200 -13.225400 11.864200
						CHANNELS 3 Xrotation Yrotation Zrotation
						End Site
						{
							OFFSET 0.000000 12.319262 0.000000
						}
					}
					JOINT LFootTongue
					{
						OFFSET 1.142400 -1.059800 6.665200
						CHANNELS 3 Xrotation Yrotation Zrotation
						End Site
						{
							OFFSET 0.000000 12.319262 0.000000
						}
					}
				}
				JOINT LeftPantLeg
				{
					OFFSET 0.918482 -16.533964 -2.284700
					CHANNELS 3 Xrotation Yrotation Zrotation
					End Site
					{
						OFFSET 0.350399 24.744368 0.000000
					}
				}
			}
		}
		JOINT RightUpLeg
		{
			OFFSET -8.479700 -4.795502 -0.379100
			CHANNELS 3 Xrotation Yrotation Zrotation
			JOINT RightLeg
			{
				OFFSET -0.023144 -32.555092 0.112900
				CHANNELS 3 Xrotation Yrotation Zrotation
				JOINT RightFoot
				{
					OFFSET 0.023144 -32.638641 -3.012700
					CHANNELS 3 Xrotation Yrotation Zrotation
					JOINT RightToeBase
					{
						OFFSET -0.970200 -13.225400 11.864200
						CHANNELS 3 Xrotation Yrotation Zrotation
						End Site
						{
							OFFSET 0.000000 12.319244 0.000000
						}
					}
					JOINT RFootTongue
					{
						OFFSET -1.142200 -1.059800 6.665200
						CHANNELS 3 Xrotation Yrotation Zrotation
						End Site
						{
							OFFSET 0.000000 12.319243 0.000000
						}
					}
				}
				JOINT RightPantLeg
				{
					OFFSET -0.919482 -16.533978 -2.284800
					CHANNELS 3 Xrotation Yrotation Zrotation
					End Site
					{
						OFFSET -0.350400 24.744419 0.000000
					}
				}
			}
		}
	}
	JOINT Spine
	{
		OFFSET 0.000000 7.722000 1.166200
		CHANNELS 3 Xrotation Yrotation Zrotation
		JOINT Spine1
		{
			OFFSET 0.000000 12.024101 0.248800
			CHANNELS 3 Xrotation Yrotation Zrotation
			JOINT Spine2
			{
				OFFSET 0.000000 11.502998 -0.491200
				CHANNELS 3 Xrotation Yrotation Zrotation
				JOINT Neck
				{
					OFFSET 0.000000 18.430702 -3.123100
					CHANNELS 3 Xrotation Yrotation Zrotation
					JOINT Head
					{
						OFFSET 0.000000 9.051102 1.034000
						CHANNELS 3 Xrotation Yrotation Zrotation
						JOINT HairB
						{
							OFFSET 0.208400 24.786102 24.822300
							CHANNELS 3 Xrotation Yrotation Zrotation
							End Site
							{
								OFFSET 0.000000 32.263779 0.000000
							}
						}
						JOINT HairA
						{
							OFFSET -7.081100 24.428299 23.196600
							CHANNELS 3 Xrotation Yrotation Zrotation
							End Site
							{
								OFFSET 0.000000 32.263779 0.000000
							}
						}
						JOINT Hat
						{
							OFFSET 16.728800 15.048294 -15.439601
							CHANNELS 3 Xrotation Yrotation Zrotation
							End Site
							{
								OFFSET 0.000000 32.263779 0.000000
							}
						}
					}
				}
				JOINT LeftShoulder
				{
					OFFSET 6.197800 13.665199 -4.064700
					CHANNELS 3 Xrotation Yrotation Zrotation
					JOINT LeftArm
					{
						OFFSET 7.778100 -0.187103 -1.709300
						CHANNELS 3 Xrotation Yrotation Zrotation
						JOINT LeftForeArm
						{
							OFFSET 22.049376 0.000000 0.000000
							CHANNELS 3 Xrotation Yrotation Zrotation
							JOINT LeftHand
							{
								OFFSET 23.009392 0.000000 0.000000
								CHANNELS 3 Xrotation Yrotation Zrotation
								JOINT LeftHandThumb1
								{
									OFFSET 3.507191 -2.063065 3.133727
									CHANNELS 3 Xrotation Yrotation Zrotation
									JOINT LeftHandThumb2
									{
										OFFSET 3.101337 -1.790558 1.790558
										CHANNELS 3 Xrotation Yrotation Zrotation
										JOINT LeftHandThumb3
										{
											OFFSET 3.058640 -1.765907 1.765906
											CHANNELS 3 Xrotation Yrotation Zrotation
											End Site
											{
												OFFSET -0.415260 3.926476 -0.049563
											}
										}
									}
								}
								JOINT LeftHandIndex1
								{
									OFFSET 11.334419 -0.901459 3.706815
									CHANNELS 3 Xrotation Yrotation Zrotation
									JOINT LeftHandIndex2
									{
										OFFSET 3.283112 0.000000 0.000000
										CHANNELS 3 Xrotation Yrotation Zrotation
										JOINT LeftHandIndex3
										{
											OFFSET 3.323853 0.000000 0.000000
											CHANNELS 3 Xrotation Yrotation Zrotation
											End Site
											{
												OFFSET -1.135597 3.097809 0.402452
											}
										}
									}
								}
								JOINT LeftHandMiddle1
								{
									OFFSET 11.335861 0.000000 0.000000
									CHANNELS 3 Xrotation Yrotation Zrotation
									JOINT LeftHandMiddle2
									{
										OFFSET 3.410492 0.000000 0.000000
										CHANNELS 3 Xrotation Yrotation Zrotation
										JOINT LeftHandMiddle3
										{
											OFFSET 3.312172 0.000000 0.000000
											CHANNELS 3 Xrotation Yrotation Zrotation
											End Site
											{
												OFFSET -1.150200 3.080154 0.400270
											}
										}
									}
								}
								JOINT LeftHandRing1
								{
									OFFSET 11.514786 -0.013176 -3.003090
									CHANNELS 3 Xrotation Yrotation Zrotation
									JOINT LeftHandRing2
									{
										OFFSET 3.053307 0.000000 0.000000
										CHANNELS 3 Xrotation Yrotation Zrotation
										JOINT LeftHandRing3
										{
											OFFSET 3.295807 0.000000 0.000000
											CHANNELS 3 Xrotation Yrotation Zrotation
											End Site
											{
												OFFSET -1.281006 3.013344 0.375733
											}
										}
									}
								}
								JOINT LeftHandPinky1
								{
									OFFSET 10.518692 -0.960396 -5.730441
									CHANNELS 3 Xrotation Yrotation Zrotation
									JOINT LeftHandPinky2
									{
										OFFSET 2.861649 0.000000 0.000000
										CHANNELS 3 Xrotation Yrotation Zrotation
										JOINT LeftHandPinky3
										{
											OFFSET 2.863380 0.000000 0.000000
											CHANNELS 3 Xrotation Yrotation Zrotation
											End Site
											{
												OFFSET -0.843597 2.711159 0.369971
											}
										}
									}
								}
							}
							JOINT LSleeve
							{
								OFFSET 6.676277 -0.344902 -1.011730
								CHANNELS 3 Xrotation Yrotation Zrotation
								End Site
								{
									OFFSET 0.000000 14.885353 0.000000
								}
							}
						}
					}
				}
				JOINT RightShoulder
				{
					OFFSET -6.197800 13.665199 -4.064700
					CHANNELS 3 Xrotation Yrotation Zrotation
					JOINT RightArm
					{
						OFFSET -7.778100 -0.187103 -1.709300
						CHANNELS 3 Xrotation Yrotation Zrotation
						JOINT RightForeArm
						{
							OFFSET -22.049376 0.000000 0.000000
							CHANNELS 3 Xrotation Yrotation Zrotation
							JOINT RightHand
							{
								OFFSET -23.009392 0.000000 0.000000
								CHANNELS 3 Xrotation Yrotation Zrotation
								JOINT RightHandThumb1
								{
									OFFSET -3.507191 -2.063065 3.133727
									CHANNELS 3 Xrotation Yrotation Zrotation
									JOINT RightHandThumb2
									{
										OFFSET -3.101337 -1.790558 1.790558
										CHANNELS 3 Xrotation Yrotation Zrotation
										JOINT RightHandThumb3
										{
											OFFSET -3.058640 -1.765907 1.765906
											CHANNELS 3 Xrotation Yrotation Zrotation
											End Site
											{
												OFFSET 0.415260 3.926476 -0.049563
											}
										}
									}
								}
								JOINT RightHandIndex1
								{
									OFFSET -11.334419 -0.901459 3.706815
									CHANNELS 3 Xrotation Yrotation Zrotation
									JOINT RightHandIndex2
									{
										OFFSET -3.283112 0.000000 0.000000
										CHANNELS 3 Xrotation Yrotation Zrotation
										JOINT RightHandIndex3
										{
											OFFSET -3.323853 0.000000 0.000000
											CHANNELS 3 Xrotation Yrotation Zrotation
											End Site
											{
												OFFSET 1.135597 3.097809 0.402452
											}
										}
									}
								}
								JOINT RightHandMiddle1
								{
									OFFSET -11.335861 0.000000 0.000000
									CHANNELS 3 Xrotation Yrotation Zrotation
									JOINT RightHandMiddle2
									{
										OFFSET -3.410492 0.000000 0.000000
										CHANNELS 3 Xrotation Yrotation Zrotation
										JOINT RightHandMiddle3
										{
											OFFSET -3.312172 0.000000 0.000000
											CHANNELS 3 Xrotation Yrotation Zrotation
											End Site
											{
												OFFSET 1.150200 3.080154 0.400270
											}
										}
									}
								}
								JOINT RightHandRing1
								{
									OFFSET -11.514786 -0.013176 -3.003090
									CHANNELS 3 Xrotation Yrotation Zrotation
									JOINT RightHandRing2
									{
										OFFSET -3.053307 0.000000 0.000000
										CHANNELS 3 Xrotation Yrotation Zrotation
										JOINT RightHandRing3
										{
											OFFSET -3.295807 0.000000 0.000000
											CHANNELS 3 Xrotation Yrotation Zrotation
											End Site
											{
												OFFSET 1.281006 3.013344 0.375733
											}
										}
									}
								}
								JOINT RightHandPinky1
								{
									OFFSET -10.518692 -0.960396 -5.730441
									CHANNELS 3 Xrotation Yrotation Zrotation
									JOINT RightHandPinky2
									{
										OFFSET -2.861649 0.000000 0.000000
										CHANNELS 3 Xrotation Yrotation Zrotation
										JOINT RightHandPinky3
										{
											OFFSET -2.863380 0.000000 0.000000
											CHANNELS 3 Xrotation Yrotation Zrotation
											End Site
											{
												OFFSET 0.843597 2.711159 0.369971
											}
										}
									}
								}
							}
							JOINT RSleeve
							{
								OFFSET -6.676277 -0.344902 -1.011730
								CHANNELS 3 Xrotation Yrotation Zrotation
								End Site
								{
									OFFSET 0.000000 14.885353 0.000000
								}
							}
						}
					}
				}
				JOINT Backpack
				{
					OFFSET 0.000000 -2.471497 36.677502
					CHANNELS 3 Xrotation Yrotation Zrotation
					End Site
					{
						OFFSET 0.000000 20.427315 0.000000
					}
				}
				JOINT Hood
				{
					OFFSET 0.000000 18.754097 -10.431000
					CHANNELS 3 Xrotation Yrotation Zrotation
					JOINT Hood1
					{
						OFFSET 0.000000 -5.011002 -7.685901
						CHANNELS 3 Xrotation Yrotation Zrotation
						End Site
						{
							OFFSET 0.000000 9.175140 0.000000
						}
					}
				}
				JOINT LHoodieString
				{
					OFFSET 5.250500 16.397697 3.089900
					CHANNELS 3 Xrotation Yrotation Zrotation
					JOINT LHoodieString1
					{
						OFFSET 0.257700 -6.364304 3.694600
						CHANNELS 3 Xrotation Yrotation Zrotation
						JOINT LHoodieString2
						{
							OFFSET 0.000000 -9.643799 2.679100
							CHANNELS 3 Xrotation Yrotation Zrotation
							End Site
							{
								OFFSET 0.000000 10.009018 0.000000
							}
						}
					}
				}
				JOINT RHoodieString
				{
					OFFSET -5.250500 16.397697 3.089900
					CHANNELS 3 Xrotation Yrotation Zrotation
					JOINT RHoodieString1
					{
						OFFSET -0.257700 -6.364304 3.694600
						CHANNELS 3 Xrotation Yrotation Zrotation
						JOINT RHoodieString2
						{
							OFFSET 0.000000 -9.643799 2.679100
							CHANNELS 3 Xrotation Yrotation Zrotation
							End Site
							{
								OFFSET 0.000000 10.009018 0.000000
							}
						}
					}
				}
			}
			JOINT LBackpack_Strap
			{
				OFFSET 15.223200 -7.719803 -6.610900
				CHANNELS 3 Xrotation Yrotation Zrotation
				End Site
				{
					OFFSET 0.000000 16.040596 0.000000
				}
			}
			JOINT RBackpack_Strap
			{
				OFFSET -15.223000 -7.719803 -6.610900
				CHANNELS 3 Xrotation Yrotation Zrotation
				End Site
				{
					OFFSET 0.000000 16.040596 0.000000
				}
			}
		}
	}
	JOINT BoyFacialAnim_Joint
	{
		OFFSET 1.000000 -82.208099 -1.550900
		CHANNELS 3 Xrotation Yrotation Zrotation
		End Site
		{
			OFFSET 0.000000 30.012791 0.000000
		}
	}
}
MOTION
Frames: 4
Frame Time: 0.033333
17.131065 74.132523 51.105320 14.129927 0.817598 -13.565127 -0.000001 -0.000000 -0.000000 -50.557986 -10.643878 18.282572 63.174974 3.585454 -8.090474 -22.018428 1.164472 -4.383670 -0.000000 -0.000000 -0.000000 -0.000000 -0.000000 0.000000 -0.000001 -0.000000 0.000000 3.751717 1.423555 0.092669 11.998440 -10.669498 -1.273829 -4.644251 -30.476509 22.161647 0.000000 0.000000 0.000000 0.000000 0.000000 0.000000 -0.000002 -0.000001 -0.000001 1.027495 1.893972 -1.868747 2.149235 2.694770 -0.886280 2.064423 2.809428 -0.856474 -2.191979 -3.687991 -2.827316 11.253626 -22.132868 2.074394 0.000001 -0.000001 -0.000000 0.000001 -0.000001 -0.000000 0.000001 -0.000001 -0.000000 -0.449599 7.031841 1.642523 -137.457871 -44.144763 -91.817721 0.000002 -18.549761 0.000012 -1.110990 -4.857864 16.239697 1.517252 13.006203 9.166407 -0.621532 20.107884 9.779309 -0.000001 -0.000000 0.000001 -0.039943 0.134049 -7.390353 0.689358 3.007869 -25.811360 -0.000004 0.000003 -0.000005 0.136643 1.367777 -11.497243 0.846396 3.312496 -28.659443 0.000003 0.000002 -0.000003 0.084375 1.176105 -13.711935 0.996863 3.573577 -31.164326 0.000001 0.000001 -0.000002 0.695134 3.555234 -14.476974 0.363720 -1.849637 -19.115169 -0.000001 -0.000001 0.000001 -0.000000 0.000001 -0.000000 0.231370 0.794215 -5.610626 -87.043036 54.149190 56.354187 0.000003 47.256405 -0.000001 -42.456063 -7.598212 -25.595142 -4.139576 -7.994930 -6.707142 7.997082 -23.302795 -8.614229 -0.000003 0.000001 0.000002 -0.035837 -0.260936 8.345062 0.432898 -2.419474 20.286268 -0.000003 0.000002 0.000006 0.096313 -1.155659 9.612986 1.060885 -3.696651 32.015737 0.000001 0.000003 0.000000 0.549806 -2.768279 18.820530 0.695219 -3.035531 25.794327 0.000001 -0.000000 0.000004 -0.312108 -0.608252 22.357649 0.271070 -1.926190 16.019363 -0.000003 -0.000002 -0.000004 -0.000001 0.000001 -0.000001 -0.000001 0.000000 -0.000002 -0.000001 0.000000 -0.000002 -0.000001 0.000000 -0.000002 -0.000001 0.000000 -0.000002 -0.000001 0.000000 -0.000001 -0.000001 0.000000 -0.000000 -0.000001 0.000000 -0.000002 -0.000001 0.000000 -0.000001 -0.000001 0.000000 -0.000000 0.000000 -0.000000 -0.000002 0.000000 -0.000000 -0.000002 -0.000001 -0.000000 -0.000000 
17.332693 72.669937 50.939377 13.878480 0.045451 -13.332265 -0.000001 0.000000 -0.000001 -52.682765 -8.202565 17.814096 66.510620 2.539586 -6.352769 -24.868603 0.491704 -1.522796 0.000000 0.000000 -0.000000 0.000000 0.000000 -0.000000 0.000000 0.000000 -0.000000 4.816068 -5.208949 -2.108882 12.103597 -10.480648 -0.225040 -7.742517 -29.528055 22.710411 0.000001 -0.000000 0.000000 0.000001 -0.000000 0.000000 -0.000000 -0.000000 0.000001 1.081045 1.740299 -1.711854 2.616062 2.453234 -0.846176 2.551675 2.573997 -0.802876 -2.767976 -3.278679 -3.975244 11.909483 -22.171918 4.585576 0.000001 0.000001 -0.000000 0.000001 0.000001 -0.000000 0.000001 0.000001 -0.000000 -0.595825 7.278002 2.930815 -139.403642 -42.809365 -92.258186 -0.000011 -19.398594 -0.000005 0.719562 -4.161869 16.981793 1.517273 13.006229 9.166403 -0.621534 20.107875 9.779303 0.000001 -0.000002 -0.000001 -0.039941 0.134024 -7.390383 0.689368 3.007891 -25.811351 -0.000003 0.000001 -0.000003 0.136646 1.367786 -11.497248 0.846402 3.312505 -28.659460 0.000002 -0.000000 -0.000003 0.084391 1.176109 -13.711943 0.996850 3.573564 -31.164340 -0.000000 0.000003 -0.000005 0.695133 3.555234 -14.476982 0.363716 -1.849639 -19.115179 0.000000 -0.000000 0.000001 -0.000003 -0.000002 0.000001 0.206949 0.803325 -6.698094 -87.224596 51.992404 54.690165 -0.000002 47.303131 0.000001 -39.635472 -8.767063 -24.920377 -4.139579 -7.994933 -6.707131 7.997080 -23.302778 -8.614229 -0.000001 -0.000000 0.000001 -0.035853 -0.260936 8.345072 0.432926 -2.419480 20.286241 -0.000006 0.000000 -0.000002 0.096313 -1.155665 9.612989 1.060877 -3.696647 32.015726 0.000002 0.000000 -0.000000 0.549795 -2.768273 18.820533 0.695223 -3.035525 25.794337 -0.000003 0.000001 0.000002 -0.312125 -0.608241 22.357670 0.271069 -1.926176 16.019374 -0.000004 -0.000003 -0.000004 0.000001 0.000003 0.000001 0.000001 0.000001 -0.000000 0.000001 0.000001 -0.000000 0.000001 0.000001 -0.000000 0.000001 0.000001 -0.000000 0.000001 0.000001 0.000000 -0.000001 -0.000000 -0.000000 0.000001 0.000001 -0.000000 0.000001 0.000001 0.000000 -0.000001 -0.000000 -0.000000 -0.000000 -0.000000 -0.000001 -0.000000 -0.000000 -0.000001 -0.000001 0.000000 -0.000001 
18.237171 72.830536 51.420902 13.453268 0.573382 -13.491167 -0.000000 -0.000000 0.000000 -51.423903 -5.917188 16.381982 65.672276 3.199881 -4.518315 -27.238598 0.072536 -0.082840 0.000000 0.000001 -0.000000 0.000000 0.000001 -0.000000 0.000001 -0.000000 0.000000 5.104790 -10.344705 -5.886485 12.589435 -9.905207 2.562400 -1.102102 -23.747883 27.822101 0.000001 0.000000 0.000001 0.000001 0.000000 0.000001 -0.000006 -0.000000 -0.000002 1.168711 1.423583 -1.403136 2.770335 1.986190 -0.887392 2.744682 2.060113 -0.851138 -2.278298 -3.532034 -3.859433 13.306884 -23.167827 4.925860 0.000001 0.000003 -0.000000 0.000001 0.000003 -0.000000 0.000001 0.000003 -0.000000 -0.621368 7.117761 3.394007 -135.953085 -37.796792 -94.012117 -0.000018 -27.879526 -0.000018 8.036640 -2.610377 16.788639 1.517266 13.006223 9.166400 -0.621533 20.107879 9.779303 0.000000 0.000006 0.000002 -0.039940 0.134036 -7.390362 0.689357 3.007857 -25.811365 -0.000001 -0.000003 0.000001 0.136641 1.367780 -11.497265 0.846407 3.312509 -28.659446 0.000004 -0.000001 -0.000002 0.084373 1.176110 -13.711920 0.996840 3.573549 -31.164323 0.000001 0.000003 -0.000003 0.695136 3.555243 -14.476974 0.363712 -1.849624 -19.115152 0.000000 0.000002 -0.000005 -0.000003 0.000002 -0.000001 0.238886 0.880551 -5.788666 -79.964822 49.766900 48.530611 -0.000003 50.636738 0.000006 -38.355317 -8.473972 -25.371223 -4.139568 -7.994947 -6.707145 7.997102 -23.302777 -8.614206 0.000000 0.000001 -0.000004 -0.035838 -0.260944 8.345076 0.432924 -2.419473 20.286242 -0.000001 -0.000001 0.000002 0.096310 -1.155652 9.612987 1.060894 -3.696651 32.015740 -0.000000 -0.000001 -0.000004 0.549817 -2.768285 18.820530 0.695221 -3.035534 25.794327 0.000002 0.000001 0.000004 -0.312093 -0.608252 22.357658 0.271060 -1.926190 16.019377 -0.000003 0.000000 0.000002 -0.000000 0.000002 0.000001 -0.000000 0.000000 0.000001 -0.000000 0.000000 0.000001 -0.000000 0.000000 0.000001 -0.000000 0.000000 0.000001 -0.000000 0.000000 0.000001 -0.000002 0.000000 0.000000 -0.000000 0.000000 0.000001 -0.000000 0.000000 0.000001 -0.000002 0.000000 0.000000 0.000002 -0.000000 -0.000000 0.000002 -0.000000 -0.000000 -0.000000 -0.000000 0.000000 
19.697456 74.474144 52.335426 12.350719 0.682154 -13.675476 -0.000000 0.000000 0.000000 -46.090192 -6.304128 15.278466 60.688826 5.281207 -5.561175 -26.269193 0.110501 -0.351556 -0.000000 0.000000 0.000000 -0.000000 0.000000 0.000000 0.000000 -0.000001 0.000000 3.643224 -9.659197 -9.892654 13.887906 -10.603712 4.655158 15.169954 -17.729308 32.419401 -0.000000 0.000000 0.000001 -0.000000 0.000000 0.000001 0.000001 0.000002 0.000001 1.433404 1.356704 -1.303947 2.754742 1.889753 -1.063308 2.758174 1.898352 -1.041304 -0.875875 -4.120955 -2.248434 13.456261 -23.343087 3.044661 -0.000001 -0.000002 -0.000000 -0.000001 -0.000002 -0.000000 -0.000001 -0.000002 -0.000000 -0.631045 6.957474 3.698674 -130.092277 -35.430056 -97.648742 0.000006 -38.603130 0.000016 15.625048 -1.722840 15.981464 1.517284 13.006222 9.166393 -0.621534 20.107893 9.779298 0.000002 0.000001 -0.000002 -0.039937 0.134053 -7.390375 0.689363 3.007861 -25.811360 -0.000001 -0.000000 -0.000005 0.136643 1.367790 -11.497259 0.846401 3.312500 -28.659433 -0.000003 0.000000 -0.000001 0.084380 1.176129 -13.711916 0.996852 3.573544 -31.164333 0.000003 0.000000 -0.000000 0.695133 3.555246 -14.476972 0.363732 -1.849609 -19.115167 -0.000002 -0.000001 -0.000004 -0.000001 -0.000001 0.000000 0.361744 1.416308 -3.013907 -67.315141 46.781977 39.093073 -0.000002 55.475633 -0.000001 -39.094258 -6.271499 -25.932958 -4.139586 -7.994925 -6.707135 7.997080 -23.302799 -8.614226 0.000001 0.000001 -0.000001 -0.035834 -0.260940 8.345055 0.432919 -2.419469 20.286263 0.000003 -0.000002 0.000005 0.096308 -1.155644 9.612983 1.060896 -3.696661 32.015740 -0.000001 0.000003 0.000000 0.549809 -2.768280 18.820528 0.695219 -3.035529 25.794327 0.000001 -0.000001 0.000004 -0.312112 -0.608236 22.357661 0.271069 -1.926202 16.019352 -0.000003 -0.000002 -0.000000 -0.000000 -0.000000 -0.000000 0.000001 0.000000 -0.000001 0.000001 0.000000 -0.000001 0.000001 0.000000 -0.000001 0.000001 0.000000 -0.000001 0.000001 0.000000 -0.000000 0.000001 0.000001 -0.000001 0.000001 0.000000 -0.000001 0.000001 0.000000 -0.000000 0.000001 0.000001 -0.000001 0.000002 -0.000000 0.000001 0.000002 -0.000000 0.000001 -0.000000 0.000000 0.000000 
